<?xml version="1.0" encoding="UTF-8" standalone="no"?>
<!DOCTYPE svg PUBLIC "-//W3C//DTD SVG 1.1//EN"
 "http://www.w3.org/Graphics/SVG/1.1/DTD/svg11.dtd">
<!-- Generated by graphviz version 2.30.1 (20180420.1509)
 -->
<!-- Title: %3 Pages: 1 -->
<svg width="925pt" height="364pt"
 viewBox="0.00 0.00 925.00 364.00" xmlns="http://www.w3.org/2000/svg" xmlns:xlink="http://www.w3.org/1999/xlink">
<g id="graph0" class="graph" transform="scale(1 1) rotate(0) translate(4 360)">
<title>%3</title>
<polygon fill="white" stroke="white" points="-4,5 -4,-360 922,-360 922,5 -4,5"/>
<g id="clust1" class="cluster"><title>clusterMain</title>
<polygon fill="none" stroke="none" points="8,-8 8,-348 909,-348 909,-8 8,-8"/>
</g>
<!-- AgetSerialController -->
<g id="node1" class="node"><title>AgetSerialController</title>
<g id="a_node1"><a xlink:href="http://svomdev.extra.cea.fr:8480/jenkins/job/AgetSerialController/" xlink:title="AgetSerialController">
<path fill="none" stroke="black" d="M658,-52C658,-52 552,-52 552,-52 546,-52 540,-46 540,-40 540,-40 540,-28 540,-28 540,-22 546,-16 552,-16 552,-16 658,-16 658,-16 664,-16 670,-22 670,-28 670,-28 670,-40 670,-40 670,-46 664,-52 658,-52"/>
<text text-anchor="middle" x="605" y="-30.3" font-family="Times,serif" font-size="14.00">AgetSerialController</text>
</a>
</g>
</g>
<!-- AgetTestBenchLogAnalyzer -->
<g id="node2" class="node"><title>AgetTestBenchLogAnalyzer</title>
<g id="a_node2"><a xlink:href="http://svomdev.extra.cea.fr:8480/jenkins/job/AgetTestBenchLogAnalyzer/" xlink:title="AgetTestBenchLogAnalyzer">
<path fill="none" stroke="black" d="M539,-124C539,-124 391,-124 391,-124 385,-124 379,-118 379,-112 379,-112 379,-100 379,-100 379,-94 385,-88 391,-88 391,-88 539,-88 539,-88 545,-88 551,-94 551,-100 551,-100 551,-112 551,-112 551,-118 545,-124 539,-124"/>
<text text-anchor="middle" x="465" y="-102.3" font-family="Times,serif" font-size="14.00">AgetTestBenchLogAnalyzer</text>
</a>
</g>
</g>
<!-- CoBoFrameViewer -->
<g id="node3" class="node"><title>CoBoFrameViewer</title>
<g id="a_node3"><a xlink:href="http://svomdev.extra.cea.fr:8480/jenkins/job/CoBoFrameViewer/" xlink:title="CoBoFrameViewer">
<path fill="none" stroke="black" d="M348.25,-124C348.25,-124 249.75,-124 249.75,-124 243.75,-124 237.75,-118 237.75,-112 237.75,-112 237.75,-100 237.75,-100 237.75,-94 243.75,-88 249.75,-88 249.75,-88 348.25,-88 348.25,-88 354.25,-88 360.25,-94 360.25,-100 360.25,-100 360.25,-112 360.25,-112 360.25,-118 354.25,-124 348.25,-124"/>
<text text-anchor="middle" x="299" y="-102.3" font-family="Times,serif" font-size="14.00">CoBoFrameViewer</text>
</a>
</g>
</g>
<!-- CompoundConfig -->
<g id="node4" class="node"><title>CompoundConfig</title>
<g id="a_node4"><a xlink:href="http://svomdev.extra.cea.fr:8480/jenkins/job/CompoundConfig/" xlink:title="CompoundConfig">
<path fill="none" stroke="black" d="M541.25,-268C541.25,-268 450.75,-268 450.75,-268 444.75,-268 438.75,-262 438.75,-256 438.75,-256 438.75,-244 438.75,-244 438.75,-238 444.75,-232 450.75,-232 450.75,-232 541.25,-232 541.25,-232 547.25,-232 553.25,-238 553.25,-244 553.25,-244 553.25,-256 553.25,-256 553.25,-262 547.25,-268 541.25,-268"/>
<text text-anchor="middle" x="496" y="-246.3" font-family="Times,serif" font-size="14.00">CompoundConfig</text>
</a>
</g>
</g>
<!-- ConfigDatabase -->
<g id="node5" class="node"><title>ConfigDatabase</title>
<g id="a_node5"><a xlink:href="http://svomdev.extra.cea.fr:8480/jenkins/job/ConfigDatabase/" xlink:title="ConfigDatabase">
<path fill="none" stroke="black" d="M741,-196C741,-196 661,-196 661,-196 655,-196 649,-190 649,-184 649,-184 649,-172 649,-172 649,-166 655,-160 661,-160 661,-160 741,-160 741,-160 747,-160 753,-166 753,-172 753,-172 753,-184 753,-184 753,-190 747,-196 741,-196"/>
<text text-anchor="middle" x="701" y="-174.3" font-family="Times,serif" font-size="14.00">ConfigDatabase</text>
</a>
</g>
</g>
<!-- CompoundConfig&#45;&gt;ConfigDatabase -->
<g id="edge7" class="edge"><title>CompoundConfig&#45;&gt;ConfigDatabase</title>
<path fill="none" stroke="black" d="M545.887,-231.966C574.654,-222.142 611.008,-209.729 641.289,-199.389"/>
<polygon fill="black" stroke="black" points="642.557,-202.655 650.89,-196.111 640.295,-196.03 642.557,-202.655"/>
</g>
<!-- ConfigServer -->
<g id="node6" class="node"><title>ConfigServer</title>
<g id="a_node6"><a xlink:href="http://svomdev.extra.cea.fr:8480/jenkins/job/ConfigServer/" xlink:title="ConfigServer">
<path fill="none" stroke="black" d="M618.25,-196C618.25,-196 553.75,-196 553.75,-196 547.75,-196 541.75,-190 541.75,-184 541.75,-184 541.75,-172 541.75,-172 541.75,-166 547.75,-160 553.75,-160 553.75,-160 618.25,-160 618.25,-160 624.25,-160 630.25,-166 630.25,-172 630.25,-172 630.25,-184 630.25,-184 630.25,-190 624.25,-196 618.25,-196"/>
<text text-anchor="middle" x="586" y="-174.3" font-family="Times,serif" font-size="14.00">ConfigServer</text>
</a>
</g>
</g>
<!-- CompoundConfig&#45;&gt;ConfigServer -->
<g id="edge9" class="edge"><title>CompoundConfig&#45;&gt;ConfigServer</title>
<path fill="none" stroke="black" d="M518.247,-231.697C529.582,-222.881 543.53,-212.032 555.819,-202.474"/>
<polygon fill="black" stroke="black" points="558.264,-205.007 564.009,-196.104 553.966,-199.481 558.264,-205.007"/>
</g>
<!-- ConfigWidgets -->
<g id="node7" class="node"><title>ConfigWidgets</title>
<g id="a_node7"><a xlink:href="http://svomdev.extra.cea.fr:8480/jenkins/job/ConfigWidgets/" xlink:title="ConfigWidgets">
<path fill="none" stroke="black" d="M337,-196C337,-196 261,-196 261,-196 255,-196 249,-190 249,-184 249,-184 249,-172 249,-172 249,-166 255,-160 261,-160 261,-160 337,-160 337,-160 343,-160 349,-166 349,-172 349,-172 349,-184 349,-184 349,-190 343,-196 337,-196"/>
<text text-anchor="middle" x="299" y="-174.3" font-family="Times,serif" font-size="14.00">ConfigWidgets</text>
</a>
</g>
</g>
<!-- CompoundConfig&#45;&gt;ConfigWidgets -->
<g id="edge10" class="edge"><title>CompoundConfig&#45;&gt;ConfigWidgets</title>
<path fill="none" stroke="black" d="M448.06,-231.966C420.535,-222.185 385.783,-209.836 356.759,-199.524"/>
<polygon fill="black" stroke="black" points="357.749,-196.161 347.155,-196.111 355.406,-202.757 357.749,-196.161"/>
</g>
<!-- MDaq -->
<g id="node12" class="node"><title>MDaq</title>
<g id="a_node12"><a xlink:href="http://svomdev.extra.cea.fr:8480/jenkins/job/MDaq/" xlink:title="MDaq">
<path fill="none" stroke="black" d="M511,-196C511,-196 481,-196 481,-196 475,-196 469,-190 469,-184 469,-184 469,-172 469,-172 469,-166 475,-160 481,-160 481,-160 511,-160 511,-160 517,-160 523,-166 523,-172 523,-172 523,-184 523,-184 523,-190 517,-196 511,-196"/>
<text text-anchor="middle" x="496" y="-174.3" font-family="Times,serif" font-size="14.00">MDaq</text>
</a>
</g>
</g>
<!-- CompoundConfig&#45;&gt;MDaq -->
<g id="edge21" class="edge"><title>CompoundConfig&#45;&gt;MDaq</title>
<path fill="none" stroke="black" d="M496,-231.697C496,-223.983 496,-214.712 496,-206.112"/>
<polygon fill="black" stroke="black" points="499.5,-206.104 496,-196.104 492.5,-206.104 499.5,-206.104"/>
</g>
<!-- MultiFrame -->
<g id="node14" class="node"><title>MultiFrame</title>
<g id="a_node14"><a xlink:href="http://svomdev.extra.cea.fr:8480/jenkins/job/MultiFrame/" xlink:title="MultiFrame">
<path fill="none" stroke="black" d="M438.25,-196C438.25,-196 379.75,-196 379.75,-196 373.75,-196 367.75,-190 367.75,-184 367.75,-184 367.75,-172 367.75,-172 367.75,-166 373.75,-160 379.75,-160 379.75,-160 438.25,-160 438.25,-160 444.25,-160 450.25,-166 450.25,-172 450.25,-172 450.25,-184 450.25,-184 450.25,-190 444.25,-196 438.25,-196"/>
<text text-anchor="middle" x="409" y="-174.3" font-family="Times,serif" font-size="14.00">MultiFrame</text>
</a>
</g>
</g>
<!-- CompoundConfig&#45;&gt;MultiFrame -->
<g id="edge25" class="edge"><title>CompoundConfig&#45;&gt;MultiFrame</title>
<path fill="none" stroke="black" d="M474.494,-231.697C463.537,-222.881 450.054,-212.032 438.175,-202.474"/>
<polygon fill="black" stroke="black" points="440.244,-199.646 430.258,-196.104 435.855,-205.1 440.244,-199.646"/>
</g>
<!-- DatabaseWidgets -->
<g id="node9" class="node"><title>DatabaseWidgets</title>
<g id="a_node9"><a xlink:href="http://svomdev.extra.cea.fr:8480/jenkins/job/DatabaseWidgets/" xlink:title="DatabaseWidgets">
<path fill="none" stroke="black" d="M759,-124C759,-124 671,-124 671,-124 665,-124 659,-118 659,-112 659,-112 659,-100 659,-100 659,-94 665,-88 671,-88 671,-88 759,-88 759,-88 765,-88 771,-94 771,-100 771,-100 771,-112 771,-112 771,-118 765,-124 759,-124"/>
<text text-anchor="middle" x="715" y="-102.3" font-family="Times,serif" font-size="14.00">DatabaseWidgets</text>
</a>
</g>
</g>
<!-- ConfigDatabase&#45;&gt;DatabaseWidgets -->
<g id="edge13" class="edge"><title>ConfigDatabase&#45;&gt;DatabaseWidgets</title>
<path fill="none" stroke="black" d="M704.461,-159.697C706.003,-151.983 707.858,-142.712 709.578,-134.112"/>
<polygon fill="black" stroke="black" points="713.05,-134.597 711.579,-124.104 706.186,-133.224 713.05,-134.597"/>
</g>
<!-- GetBench -->
<g id="node10" class="node"><title>GetBench</title>
<g id="a_node10"><a xlink:href="http://svomdev.extra.cea.fr:8480/jenkins/job/GetBench/" xlink:title="GetBench">
<path fill="none" stroke="black" d="M628.25,-124C628.25,-124 581.75,-124 581.75,-124 575.75,-124 569.75,-118 569.75,-112 569.75,-112 569.75,-100 569.75,-100 569.75,-94 575.75,-88 581.75,-88 581.75,-88 628.25,-88 628.25,-88 634.25,-88 640.25,-94 640.25,-100 640.25,-100 640.25,-112 640.25,-112 640.25,-118 634.25,-124 628.25,-124"/>
<text text-anchor="middle" x="605" y="-102.3" font-family="Times,serif" font-size="14.00">GetBench</text>
</a>
</g>
</g>
<!-- ConfigDatabase&#45;&gt;GetBench -->
<g id="edge15" class="edge"><title>ConfigDatabase&#45;&gt;GetBench</title>
<path fill="none" stroke="black" d="M677.27,-159.697C665.063,-150.796 650.015,-139.823 636.816,-130.199"/>
<polygon fill="black" stroke="black" points="638.6,-127.168 628.457,-124.104 634.475,-132.824 638.6,-127.168"/>
</g>
<!-- ConfigWidgets&#45;&gt;AgetTestBenchLogAnalyzer -->
<g id="edge2" class="edge"><title>ConfigWidgets&#45;&gt;AgetTestBenchLogAnalyzer</title>
<path fill="none" stroke="black" d="M339.608,-159.876C362.402,-150.264 391.027,-138.193 415.17,-128.013"/>
<polygon fill="black" stroke="black" points="416.669,-131.179 424.524,-124.068 413.949,-124.729 416.669,-131.179"/>
</g>
<!-- ConfigWidgets&#45;&gt;CoBoFrameViewer -->
<g id="edge4" class="edge"><title>ConfigWidgets&#45;&gt;CoBoFrameViewer</title>
<path fill="none" stroke="black" d="M299,-159.697C299,-151.983 299,-142.712 299,-134.112"/>
<polygon fill="black" stroke="black" points="302.5,-134.104 299,-124.104 295.5,-134.104 302.5,-134.104"/>
</g>
<!-- ConfigWizard -->
<g id="node8" class="node"><title>ConfigWizard</title>
<g id="a_node8"><a xlink:href="http://svomdev.extra.cea.fr:8480/jenkins/job/ConfigWizard/" xlink:title="ConfigWizard">
<path fill="none" stroke="black" d="M186.25,-124C186.25,-124 115.75,-124 115.75,-124 109.75,-124 103.75,-118 103.75,-112 103.75,-112 103.75,-100 103.75,-100 103.75,-94 109.75,-88 115.75,-88 115.75,-88 186.25,-88 186.25,-88 192.25,-88 198.25,-94 198.25,-100 198.25,-100 198.25,-112 198.25,-112 198.25,-118 192.25,-124 186.25,-124"/>
<text text-anchor="middle" x="151" y="-102.3" font-family="Times,serif" font-size="14.00">ConfigWizard</text>
</a>
</g>
</g>
<!-- ConfigWidgets&#45;&gt;ConfigWizard -->
<g id="edge12" class="edge"><title>ConfigWidgets&#45;&gt;ConfigWizard</title>
<path fill="none" stroke="black" d="M262.795,-159.876C242.742,-150.392 217.628,-138.513 196.286,-128.419"/>
<polygon fill="black" stroke="black" points="197.624,-125.18 187.087,-124.068 194.631,-131.508 197.624,-125.18"/>
</g>
<!-- ConfigWidgets&#45;&gt;DatabaseWidgets -->
<g id="edge14" class="edge"><title>ConfigWidgets&#45;&gt;DatabaseWidgets</title>
<path fill="none" stroke="black" d="M349.079,-161.989C352.086,-161.269 355.076,-160.598 358,-160 485.674,-133.878 520.967,-148.304 649,-124 649.102,-123.981 649.204,-123.961 649.305,-123.942"/>
<polygon fill="black" stroke="black" points="649.849,-127.403 658.941,-121.964 648.442,-120.546 649.849,-127.403"/>
</g>
<!-- GetController -->
<g id="node11" class="node"><title>GetController</title>
<g id="a_node11"><a xlink:href="http://svomdev.extra.cea.fr:8480/jenkins/job/GetController/" xlink:title="GetController">
<path fill="none" stroke="black" d="M381,-52C381,-52 313,-52 313,-52 307,-52 301,-46 301,-40 301,-40 301,-28 301,-28 301,-22 307,-16 313,-16 313,-16 381,-16 381,-16 387,-16 393,-22 393,-28 393,-28 393,-40 393,-40 393,-46 387,-52 381,-52"/>
<text text-anchor="middle" x="347" y="-30.3" font-family="Times,serif" font-size="14.00">GetController</text>
</a>
</g>
</g>
<!-- ConfigWidgets&#45;&gt;GetController -->
<g id="edge19" class="edge"><title>ConfigWidgets&#45;&gt;GetController</title>
<path fill="none" stroke="black" d="M263.835,-159.941C250.018,-151.254 235.653,-139.263 228,-124 220.828,-109.697 219.287,-101.419 228,-88 242.127,-66.2439 267.482,-53.3438 291.169,-45.7314"/>
<polygon fill="black" stroke="black" points="292.233,-49.0668 300.831,-42.8767 290.249,-42.3537 292.233,-49.0668"/>
</g>
<!-- Mordicus -->
<g id="node13" class="node"><title>Mordicus</title>
<g id="a_node13"><a xlink:href="http://svomdev.extra.cea.fr:8480/jenkins/job/Mordicus/" xlink:title="Mordicus">
<path fill="none" stroke="black" d="M73.25,-124C73.25,-124 28.75,-124 28.75,-124 22.75,-124 16.75,-118 16.75,-112 16.75,-112 16.75,-100 16.75,-100 16.75,-94 22.75,-88 28.75,-88 28.75,-88 73.25,-88 73.25,-88 79.25,-88 85.25,-94 85.25,-100 85.25,-100 85.25,-112 85.25,-112 85.25,-118 79.25,-124 73.25,-124"/>
<text text-anchor="middle" x="51" y="-102.3" font-family="Times,serif" font-size="14.00">Mordicus</text>
</a>
</g>
</g>
<!-- ConfigWidgets&#45;&gt;Mordicus -->
<g id="edge23" class="edge"><title>ConfigWidgets&#45;&gt;Mordicus</title>
<path fill="none" stroke="black" d="M248.825,-162.399C245.842,-161.576 242.884,-160.771 240,-160 178.46,-143.554 159.433,-144.224 95.3769,-124.241"/>
<polygon fill="black" stroke="black" points="96.179,-120.824 85.5888,-121.138 94.0637,-127.496 96.179,-120.824"/>
</g>
<!-- GetBench&#45;&gt;AgetSerialController -->
<g id="edge1" class="edge"><title>GetBench&#45;&gt;AgetSerialController</title>
<path fill="none" stroke="black" d="M605,-87.6966C605,-79.9827 605,-70.7125 605,-62.1124"/>
<polygon fill="black" stroke="black" points="608.5,-62.1043 605,-52.1043 601.5,-62.1044 608.5,-62.1043"/>
</g>
<!-- GetBench&#45;&gt;GetController -->
<g id="edge20" class="edge"><title>GetBench&#45;&gt;GetController</title>
<path fill="none" stroke="black" d="M569.271,-91.0695C566.151,-89.9849 563.029,-88.9455 560,-88 507.354,-71.5682 446.157,-56.7762 402.904,-47.0217"/>
<polygon fill="black" stroke="black" points="403.659,-43.6041 393.136,-44.8356 402.13,-50.4351 403.659,-43.6041"/>
</g>
<!-- MDaq&#45;&gt;AgetTestBenchLogAnalyzer -->
<g id="edge3" class="edge"><title>MDaq&#45;&gt;AgetTestBenchLogAnalyzer</title>
<path fill="none" stroke="black" d="M488.337,-159.697C484.808,-151.728 480.544,-142.1 476.631,-133.264"/>
<polygon fill="black" stroke="black" points="479.824,-131.831 472.575,-124.104 473.424,-134.665 479.824,-131.831"/>
</g>
<!-- MDaq&#45;&gt;GetBench -->
<g id="edge16" class="edge"><title>MDaq&#45;&gt;GetBench</title>
<path fill="none" stroke="black" d="M522.664,-159.876C536.784,-150.808 554.311,-139.552 569.561,-129.759"/>
<polygon fill="black" stroke="black" points="571.71,-132.538 578.233,-124.19 567.927,-126.648 571.71,-132.538"/>
</g>
<!-- MutantHwServer -->
<g id="node15" class="node"><title>MutantHwServer</title>
<g id="a_node15"><a xlink:href="http://svomdev.extra.cea.fr:8480/jenkins/job/MutantHwServer/" xlink:title="MutantHwServer">
<path fill="none" stroke="black" d="M888.25,-124C888.25,-124 801.75,-124 801.75,-124 795.75,-124 789.75,-118 789.75,-112 789.75,-112 789.75,-100 789.75,-100 789.75,-94 795.75,-88 801.75,-88 801.75,-88 888.25,-88 888.25,-88 894.25,-88 900.25,-94 900.25,-100 900.25,-100 900.25,-112 900.25,-112 900.25,-118 894.25,-124 888.25,-124"/>
<text text-anchor="middle" x="845" y="-102.3" font-family="Times,serif" font-size="14.00">MutantHwServer</text>
</a>
</g>
</g>
<!-- MDaq&#45;&gt;MutantHwServer -->
<g id="edge27" class="edge"><title>MDaq&#45;&gt;MutantHwServer</title>
<path fill="none" stroke="black" d="M523.184,-163.139C526.114,-161.955 529.088,-160.877 532,-160 635.621,-128.777 668.959,-145.132 779.555,-123.923"/>
<polygon fill="black" stroke="black" points="780.295,-127.345 789.426,-121.971 778.937,-120.478 780.295,-127.345"/>
</g>
<!-- MultiFrame&#45;&gt;CoBoFrameViewer -->
<g id="edge5" class="edge"><title>MultiFrame&#45;&gt;CoBoFrameViewer</title>
<path fill="none" stroke="black" d="M382.091,-159.876C367.842,-150.808 350.154,-139.552 334.764,-129.759"/>
<polygon fill="black" stroke="black" points="336.328,-126.606 326.012,-124.19 332.57,-132.511 336.328,-126.606"/>
</g>
<!-- MultiFrame&#45;&gt;GetBench -->
<g id="edge17" class="edge"><title>MultiFrame&#45;&gt;GetBench</title>
<path fill="none" stroke="black" d="M450.432,-162.753C480.825,-152.231 523.062,-137.458 560,-124 560.098,-123.964 560.196,-123.928 560.295,-123.893"/>
<polygon fill="black" stroke="black" points="561.484,-127.185 569.656,-120.442 559.063,-120.617 561.484,-127.185"/>
</g>
<!-- StateMachine -->
<g id="node16" class="node"><title>StateMachine</title>
<g id="a_node16"><a xlink:href="http://svomdev.extra.cea.fr:8480/jenkins/job/StateMachine/" xlink:title="StateMachine">
<path fill="none" stroke="black" d="M219,-196C219,-196 151,-196 151,-196 145,-196 139,-190 139,-184 139,-184 139,-172 139,-172 139,-166 145,-160 151,-160 151,-160 219,-160 219,-160 225,-160 231,-166 231,-172 231,-172 231,-184 231,-184 231,-190 225,-196 219,-196"/>
<text text-anchor="middle" x="185" y="-174.3" font-family="Times,serif" font-size="14.00">StateMachine</text>
</a>
</g>
</g>
<!-- StateMachine&#45;&gt;GetBench -->
<g id="edge18" class="edge"><title>StateMachine&#45;&gt;GetBench</title>
<path fill="none" stroke="black" d="M231.049,-162.079C234.063,-161.316 237.065,-160.613 240,-160 376.95,-131.396 418.987,-156.373 559.545,-123.713"/>
<polygon fill="black" stroke="black" points="560.474,-127.09 569.392,-121.369 558.853,-120.28 560.474,-127.09"/>
</g>
<!-- StateMachine&#45;&gt;Mordicus -->
<g id="edge24" class="edge"><title>StateMachine&#45;&gt;Mordicus</title>
<path fill="none" stroke="black" d="M152.22,-159.876C134.375,-150.554 112.103,-138.919 92.9975,-128.939"/>
<polygon fill="black" stroke="black" points="94.3902,-125.718 83.9061,-124.19 91.149,-131.922 94.3902,-125.718"/>
</g>
<!-- TestMutant -->
<g id="node17" class="node"><title>TestMutant</title>
<g id="a_node17"><a xlink:href="http://svomdev.extra.cea.fr:8480/jenkins/job/TestMutant/" xlink:title="TestMutant">
<path fill="none" stroke="black" d="M873,-196C873,-196 817,-196 817,-196 811,-196 805,-190 805,-184 805,-184 805,-172 805,-172 805,-166 811,-160 817,-160 817,-160 873,-160 873,-160 879,-160 885,-166 885,-172 885,-172 885,-184 885,-184 885,-190 879,-196 873,-196"/>
<text text-anchor="middle" x="845" y="-174.3" font-family="Times,serif" font-size="14.00">TestMutant</text>
</a>
</g>
</g>
<!-- TestMutant&#45;&gt;MutantHwServer -->
<g id="edge28" class="edge"><title>TestMutant&#45;&gt;MutantHwServer</title>
<path fill="none" stroke="black" d="M845,-159.697C845,-151.983 845,-142.712 845,-134.112"/>
<polygon fill="black" stroke="black" points="848.5,-134.104 845,-124.104 841.5,-134.104 848.5,-134.104"/>
</g>
<!-- TinyXml -->
<g id="node18" class="node"><title>TinyXml</title>
<g id="a_node18"><a xlink:href="http://svomdev.extra.cea.fr:8480/jenkins/job/TinyXml/" xlink:title="TinyXml">
<path fill="none" stroke="black" d="M517.25,-340C517.25,-340 474.75,-340 474.75,-340 468.75,-340 462.75,-334 462.75,-328 462.75,-328 462.75,-316 462.75,-316 462.75,-310 468.75,-304 474.75,-304 474.75,-304 517.25,-304 517.25,-304 523.25,-304 529.25,-310 529.25,-316 529.25,-316 529.25,-328 529.25,-328 529.25,-334 523.25,-340 517.25,-340"/>
<text text-anchor="middle" x="496" y="-318.3" font-family="Times,serif" font-size="14.00">TinyXml</text>
</a>
</g>
</g>
<!-- TinyXml&#45;&gt;CompoundConfig -->
<g id="edge6" class="edge"><title>TinyXml&#45;&gt;CompoundConfig</title>
<path fill="none" stroke="black" d="M496,-303.697C496,-295.983 496,-286.712 496,-278.112"/>
<polygon fill="black" stroke="black" points="499.5,-278.104 496,-268.104 492.5,-278.104 499.5,-278.104"/>
</g>
<!-- Utilities -->
<g id="node19" class="node"><title>Utilities</title>
<g id="a_node19"><a xlink:href="http://svomdev.extra.cea.fr:8480/jenkins/job/Utilities/" xlink:title="Utilities">
<path fill="none" stroke="black" d="M362,-268C362,-268 326,-268 326,-268 320,-268 314,-262 314,-256 314,-256 314,-244 314,-244 314,-238 320,-232 326,-232 326,-232 362,-232 362,-232 368,-232 374,-238 374,-244 374,-244 374,-256 374,-256 374,-262 368,-268 362,-268"/>
<text text-anchor="middle" x="344" y="-246.3" font-family="Times,serif" font-size="14.00">Utilities</text>
</a>
</g>
</g>
<!-- Utilities&#45;&gt;ConfigWidgets -->
<g id="edge11" class="edge"><title>Utilities&#45;&gt;ConfigWidgets</title>
<path fill="none" stroke="black" d="M332.876,-231.697C327.645,-223.559 321.3,-213.689 315.522,-204.701"/>
<polygon fill="black" stroke="black" points="318.347,-202.623 309.996,-196.104 312.459,-206.409 318.347,-202.623"/>
</g>
<!-- Utilities&#45;&gt;MDaq -->
<g id="edge22" class="edge"><title>Utilities&#45;&gt;MDaq</title>
<path fill="none" stroke="black" d="M374.03,-235.17C398.611,-223.85 433.468,-207.797 459.628,-195.75"/>
<polygon fill="black" stroke="black" points="461.219,-198.871 468.838,-191.509 458.291,-192.513 461.219,-198.871"/>
</g>
<!-- Utilities&#45;&gt;MultiFrame -->
<g id="edge26" class="edge"><title>Utilities&#45;&gt;MultiFrame</title>
<path fill="none" stroke="black" d="M360.067,-231.697C367.939,-223.22 377.555,-212.864 386.173,-203.583"/>
<polygon fill="black" stroke="black" points="388.878,-205.814 393.117,-196.104 383.748,-201.051 388.878,-205.814"/>
</g>
<!-- Utilities&#45;&gt;StateMachine -->
<g id="edge29" class="edge"><title>Utilities&#45;&gt;StateMachine</title>
<path fill="none" stroke="black" d="M313.719,-235.669C290.929,-225.635 259.242,-211.685 233.01,-200.137"/>
<polygon fill="black" stroke="black" points="234.182,-196.828 223.619,-196.002 231.361,-203.235 234.182,-196.828"/>
</g>
<!-- soci -->
<g id="node20" class="node"><title>soci</title>
<g id="a_node20"><a xlink:href="http://svomdev.extra.cea.fr:8480/jenkins/job/soci/" xlink:title="soci">
<path fill="none" stroke="black" d="M716,-268C716,-268 686,-268 686,-268 680,-268 674,-262 674,-256 674,-256 674,-244 674,-244 674,-238 680,-232 686,-232 686,-232 716,-232 716,-232 722,-232 728,-238 728,-244 728,-244 728,-256 728,-256 728,-262 722,-268 716,-268"/>
<text text-anchor="middle" x="701" y="-246.3" font-family="Times,serif" font-size="14.00">soci</text>
</a>
</g>
</g>
<!-- soci&#45;&gt;ConfigDatabase -->
<g id="edge8" class="edge"><title>soci&#45;&gt;ConfigDatabase</title>
<path fill="none" stroke="black" d="M701,-231.697C701,-223.983 701,-214.712 701,-206.112"/>
<polygon fill="black" stroke="black" points="704.5,-206.104 701,-196.104 697.5,-206.104 704.5,-206.104"/>
</g>
</g>
</svg>
