<?xml version="1.0" encoding="UTF-8" standalone="no"?>
<!DOCTYPE svg PUBLIC "-//W3C//DTD SVG 1.1//EN"
 "http://www.w3.org/Graphics/SVG/1.1/DTD/svg11.dtd">
<!-- Generated by graphviz version 2.26.3 (20100126.1600)
 -->
<!-- Title: G Pages: 1 -->
<svg width="1110pt" height="296pt"
 viewBox="0.00 0.00 1110.00 296.00" xmlns="http://www.w3.org/2000/svg" xmlns:xlink="http://www.w3.org/1999/xlink">
<g id="graph1" class="graph" transform="scale(1 1) rotate(0) translate(4 292)">
<title>G</title>
<polygon fill="white" stroke="white" points="-4,5 -4,-292 1107,-292 1107,5 -4,5"/>
<g id="graph2" class="cluster"><title>clusterEmbedded</title>
<polygon fill="none" stroke="black" points="65,-200 65,-280 1013,-280 1013,-200 65,-200"/>
<text text-anchor="middle" x="539" y="-263.4" font-family="Times Roman,serif" font-size="14.00">Embedded server(s)</text>
</g>
<g id="graph3" class="cluster"><title>clusterDummy</title>
</g>
<g id="graph4" class="cluster"><title>clusterEccServer</title>
<polygon fill="none" stroke="black" points="452,-104 452,-184 1086,-184 1086,-104 452,-104"/>
<text text-anchor="middle" x="769" y="-167.4" font-family="Times Roman,serif" font-size="14.00">Electronics Control Core</text>
</g>
<g id="graph5" class="cluster"><title>clusterDataRouters</title>
<polygon fill="none" stroke="black" points="16,-104 16,-184 444,-184 444,-104 16,-104"/>
<text text-anchor="middle" x="230" y="-167.4" font-family="Times Roman,serif" font-size="14.00">Data Routers</text>
</g>
<g id="graph6" class="cluster"><title>clusterClients</title>
<polygon fill="none" stroke="black" points="44,-8 44,-88 1090,-88 1090,-8 44,-8"/>
<text text-anchor="middle" x="567" y="-71.4" font-family="Times Roman,serif" font-size="14.00">Configuration Clients</text>
</g>
<!-- hwdummy1 -->
<!-- hwdummy2 -->
<!-- hwdummy3 -->
<!-- getHwServer -->
<g id="node5" class="node"><title>getHwServer</title>
<ellipse fill="none" stroke="black" cx="461" cy="-227" rx="75.8684" ry="18.3848"/>
<text text-anchor="middle" x="461" y="-223.4" font-family="Times Roman,serif" font-size="14.00">getHwServer</text>
</g>
<!-- getEccSoapServer -->
<g id="node13" class="node"><title>getEccSoapServer</title>
<ellipse fill="none" stroke="black" cx="559" cy="-131" rx="99.201" ry="18.3848"/>
<text text-anchor="middle" x="559" y="-127.4" font-family="Times Roman,serif" font-size="14.00">getEccSoapServer</text>
</g>
<!-- getHwServer&#45;&gt;getEccSoapServer -->
<!-- GetControllerRouter -->
<g id="node15" class="node"><title>GetControllerRouter</title>
<ellipse fill="none" stroke="black" cx="358" cy="-131" rx="77.9889" ry="18.3848"/>
<text text-anchor="middle" x="358" y="-127.4" font-family="Times Roman,serif" font-size="14.00">GetController</text>
</g>
<!-- getHwServer&#45;&gt;GetControllerRouter -->
<g id="edge24" class="edge"><title>getHwServer&#45;&gt;GetControllerRouter</title>
<path fill="none" stroke="red" stroke-dasharray="5,2" d="M441.626,-208.943C425.657,-194.059 402.827,-172.78 385.054,-156.215"/>
<polygon fill="red" stroke="red" points="386.988,-153.234 377.287,-148.976 382.216,-158.354 386.988,-153.234"/>
</g>
<!-- dataRouter -->
<g id="node16" class="node"><title>dataRouter</title>
<ellipse fill="none" stroke="black" cx="196" cy="-131" rx="65.9683" ry="18.3848"/>
<text text-anchor="middle" x="196" y="-127.4" font-family="Times Roman,serif" font-size="14.00">dataRouter</text>
</g>
<!-- getHwServer&#45;&gt;dataRouter -->
<g id="edge26" class="edge"><title>getHwServer&#45;&gt;dataRouter</title>
<path fill="none" stroke="red" stroke-dasharray="5,2" d="M418.423,-211.576C371.513,-194.582 296.132,-167.274 246.333,-149.234"/>
<polygon fill="red" stroke="red" points="247.325,-145.871 236.731,-145.755 244.94,-152.452 247.325,-145.871"/>
</g>
<!-- Narval -->
<g id="node17" class="node"><title>Narval</title>
<ellipse fill="none" stroke="black" cx="68" cy="-131" rx="43.8406" ry="18.3848"/>
<text text-anchor="middle" x="68" y="-127.4" font-family="Times Roman,serif" font-size="14.00">Narval</text>
</g>
<!-- getHwServer&#45;&gt;Narval -->
<g id="edge28" class="edge"><title>getHwServer&#45;&gt;Narval</title>
<path fill="none" stroke="red" stroke-dasharray="5,2" d="M407.179,-213.853C330.181,-195.044 189.769,-160.745 116.077,-142.744"/>
<polygon fill="red" stroke="red" points="116.68,-139.289 106.135,-140.316 115.019,-146.089 116.68,-139.289"/>
</g>
<!-- hwdummy4 -->
<!-- hwdummy5 -->
<!-- dummy7 -->
<!-- getEccServer -->
<g id="node11" class="node"><title>getEccServer</title>
<ellipse fill="none" stroke="black" cx="877" cy="-131" rx="75.1594" ry="18.3848"/>
<text text-anchor="middle" x="877" y="-127.4" font-family="Times Roman,serif" font-size="14.00">getEccServer</text>
</g>
<!-- getEccServer&#45;&gt;getHwServer -->
<g id="edge20" class="edge"><title>getEccServer&#45;&gt;getHwServer</title>
<path fill="none" stroke="red" stroke-dasharray="5,2" d="M822.193,-143.648C745.912,-161.251 607.943,-193.09 526.387,-211.911"/>
<polygon fill="red" stroke="red" points="525.198,-208.593 516.242,-214.252 526.773,-215.414 525.198,-208.593"/>
</g>
<!-- dummy8 -->
<!-- getEccSoapServer&#45;&gt;getHwServer -->
<g id="edge22" class="edge"><title>getEccSoapServer&#45;&gt;getHwServer</title>
<path fill="none" stroke="red" stroke-dasharray="5,2" d="M535.076,-149.127C518.661,-163.724 497.293,-184.439 481.624,-200.834"/>
<polygon fill="red" stroke="red" points="478.73,-198.804 474.437,-208.49 483.833,-203.595 478.73,-198.804"/>
</g>
<!-- dummy10 -->
<!-- getEccSoapServer&#45;&gt;dummy10 -->
<!-- getEccClient -->
<g id="node19" class="node"><title>getEccClient</title>
<ellipse fill="none" stroke="black" cx="1010" cy="-35" rx="72.1249" ry="18.3848"/>
<text text-anchor="middle" x="1010" y="-31.4" font-family="Times Roman,serif" font-size="14.00">getEccClient</text>
</g>
<!-- getEccClient&#45;&gt;getEccServer -->
<g id="edge12" class="edge"><title>getEccClient&#45;&gt;getEccServer</title>
<path fill="none" stroke="red" stroke-dasharray="5,2" d="M985.76,-52.4963C964.435,-67.8888 933.21,-90.4271 909.682,-107.41"/>
<polygon fill="red" stroke="red" points="907.454,-104.701 901.394,-113.392 911.551,-110.377 907.454,-104.701"/>
</g>
<!-- dummy9 -->
<!-- GetController -->
<g id="node21" class="node"><title>GetController</title>
<ellipse fill="none" stroke="black" cx="716" cy="-35" rx="77.9889" ry="18.3848"/>
<text text-anchor="middle" x="716" y="-31.4" font-family="Times Roman,serif" font-size="14.00">GetController</text>
</g>
<!-- GetController&#45;&gt;getEccServer -->
<g id="edge14" class="edge"><title>GetController&#45;&gt;getEccServer</title>
<path fill="none" stroke="red" stroke-dasharray="5,2" d="M745.077,-52.338C771.452,-68.0644 810.493,-91.3438 839.265,-108.5"/>
<polygon fill="red" stroke="red" points="837.835,-111.722 848.216,-113.837 841.42,-105.71 837.835,-111.722"/>
</g>
<!-- getEccSoapClient -->
<g id="node23" class="node"><title>getEccSoapClient</title>
<ellipse fill="none" stroke="black" cx="384" cy="-35" rx="96.1665" ry="18.3848"/>
<text text-anchor="middle" x="384" y="-31.4" font-family="Times Roman,serif" font-size="14.00">getEccSoapClient</text>
</g>
<!-- getEccSoapClient&#45;&gt;getEccSoapServer -->
<g id="edge16" class="edge"><title>getEccSoapClient&#45;&gt;getEccSoapServer</title>
<path fill="none" stroke="red" stroke-dasharray="5,2" d="M415.894,-52.4963C444.569,-68.2263 486.847,-91.4191 518.019,-108.519"/>
<polygon fill="red" stroke="red" points="516.451,-111.651 526.902,-113.392 519.818,-105.514 516.451,-111.651"/>
</g>
<!-- dummy11 -->
<!-- GRCC -->
<g id="node25" class="node"><title>GRCC</title>
<ellipse fill="none" stroke="black" cx="91" cy="-35" rx="39.0967" ry="18.3848"/>
<text text-anchor="middle" x="91" y="-31.4" font-family="Times Roman,serif" font-size="14.00">GRCC</text>
</g>
<!-- GRCC&#45;&gt;getEccSoapServer -->
<g id="edge18" class="edge"><title>GRCC&#45;&gt;getEccSoapServer</title>
<path fill="none" stroke="red" stroke-dasharray="5,2" d="M126.819,-42.3475C202.359,-57.8428 379.447,-94.1687 481.961,-115.197"/>
<polygon fill="red" stroke="red" points="481.448,-118.665 491.947,-117.246 482.854,-111.807 481.448,-118.665"/>
</g>
<!-- GRCC&#45;&gt;Narval -->
<g id="edge30" class="edge"><title>GRCC&#45;&gt;Narval</title>
<path fill="none" stroke="red" stroke-dasharray="5,2" d="M86.579,-53.4529C83.2416,-67.383 78.6023,-86.7469 74.7947,-102.64"/>
<polygon fill="red" stroke="red" points="71.3609,-101.95 72.4346,-112.49 78.1683,-103.581 71.3609,-101.95"/>
</g>
</g>
</svg>
